<?xml version="1.0" encoding="UTF-8" standalone="no"?>
<!DOCTYPE svg PUBLIC "-//W3C//DTD SVG 1.1//EN" "http://www.w3.org/Graphics/SVG/1.1/DTD/svg11.dtd">
<svg width="100%" height="100%" viewBox="0 0 512 512" version="1.1" xmlns="http://www.w3.org/2000/svg" xmlns:xlink="http://www.w3.org/1999/xlink" xml:space="preserve" xmlns:serif="http://www.serif.com/" style="fill-rule:evenodd;clip-rule:evenodd;stroke-linejoin:round;stroke-miterlimit:2;">
    <g transform="matrix(1,0,0,1,-1244,-144)">
        <g id="pyra-4-icon" transform="matrix(1.58462,0,0,1.58462,-84.6154,-1501.54)">
            <g transform="matrix(0.590909,0,0,0.619048,787.273,970.952)">
                <path d="M580,252.4C580,201.403 536.625,160 483.2,160L236.8,160C183.375,160 140,201.403 140,252.4L140,487.6C140,538.597 183.375,580 236.8,580L483.2,580C536.625,580 580,538.597 580,487.6L580,252.4Z" style="fill:rgb(11,17,31);"/>
            </g>
            <g transform="matrix(0.235152,0,0,0.235152,755.207,837.549)">
                <path d="M1423.73,1915.97L1243.69,1915.97C1243.69,1915.97 1283.99,1873.82 1284.68,1861.38C1285.84,1840.48 1273.59,1820.16 1267.7,1810.78C1200.56,1703.95 1108.27,1584.17 1065.88,1530.14C1055.13,1516.45 1041.86,1505.08 1041.04,1504.38L1041,1504.35C1041,1504.35 1027.21,1516.01 1016.12,1530.14C973.729,1584.17 881.439,1703.95 814.304,1810.78C808.409,1820.16 796.161,1840.48 797.318,1861.38C798.007,1873.82 838.305,1915.97 838.305,1915.97L658.269,1915.97L1041,1415.45L1423.73,1915.97ZM1041,1166.73C1100.62,1166.73 1149.02,1215.13 1149.02,1274.75C1149.02,1334.37 1100.62,1382.77 1041,1382.77C981.383,1382.77 932.981,1334.37 932.981,1274.75C932.981,1215.13 981.383,1166.73 1041,1166.73ZM1041.09,1213.46C1074.89,1213.46 1102.33,1240.91 1102.33,1274.7C1102.33,1308.51 1074.89,1335.94 1041.09,1335.94C1007.29,1335.94 979.848,1308.51 979.848,1274.7C979.848,1240.91 1007.29,1213.46 1041.09,1213.46Z" style="fill:#fbbf24;"/>
            </g>
        </g>
    </g>
</svg>
